<svg width="26" height="26" viewBox="0 0 26 26" fill="none" xmlns="http://www.w3.org/2000/svg">
<g clip-path="url(#clip0_11_1417)">
<path d="M25.4165 22.5894L15.8201 12.9735L25.3645 3.41016C26.1428 2.62984 26.1428 1.36493 25.3645 0.585039C24.5857 -0.19485 23.3238 -0.19485 22.545 0.585039L13.0006 10.1484L3.45666 0.585039C2.67789 -0.19485 1.41591 -0.19485 0.637142 0.585039C-0.141625 1.36536 -0.141625 2.63027 0.637142 3.41016L10.1811 12.9735L0.583831 22.5894C-0.194936 23.3698 -0.194936 24.6342 0.583831 25.4146C0.973215 25.8047 1.4833 25.9996 1.9938 25.9996C2.50431 25.9996 3.01439 25.8047 3.40377 25.4146L13.0006 15.7986L22.597 25.4146C22.9864 25.8047 23.4965 25.9996 24.007 25.9996C24.5175 25.9996 25.0276 25.8047 25.417 25.4146C26.1949 24.6347 26.1949 23.3698 25.4165 22.5894Z" fill="#0CA9E6"/>
</g>
<defs>
<clipPath id="clip0_11_1417">
<rect width="26" height="26" fill="white"/>
</clipPath>
</defs>
</svg>
