<svg width="37" height="37" viewBox="0 0 37 37" fill="none" xmlns="http://www.w3.org/2000/svg">
<path d="M18.4609 2.44861C18.3469 2.44843 18.234 2.47073 18.1286 2.51422C18.0233 2.55772 17.9275 2.62156 17.8469 2.70209C17.7662 2.78262 17.7022 2.87827 17.6585 2.98355C17.6149 3.08884 17.5924 3.2017 17.5924 3.31568V5.43701C11.1385 5.83495 5.5532 10.2109 3.66048 16.4662C3.60318 16.6582 3.61414 16.8642 3.69153 17.049C3.76891 17.2339 3.90793 17.3862 4.08495 17.4802C4.26196 17.5741 4.46606 17.6039 4.66253 17.5644C4.859 17.5248 5.03571 17.4185 5.16264 17.2634C5.81266 16.4604 6.79044 15.995 7.82283 15.995C8.95082 15.995 9.99687 16.5443 10.6414 17.4685C10.7216 17.584 10.8286 17.6783 10.9532 17.7432C11.0779 17.8082 11.2165 17.8418 11.357 17.8413H11.4362C11.5768 17.8418 11.7153 17.8082 11.84 17.7432C11.9647 17.6783 12.0717 17.584 12.1518 17.4685C12.7936 16.5443 13.8424 15.995 14.9622 15.995C15.9591 15.995 16.9423 16.438 17.5924 17.1686V31.1977C17.5924 33.1096 19.3349 34.5517 21.3204 34.5517H21.6263C23.6201 34.5517 25.3544 33.1096 25.3544 31.1977V27.5434C25.3546 27.4293 25.3322 27.3163 25.2886 27.2109C25.245 27.1055 25.181 27.0097 25.1003 26.929C25.0197 26.8484 24.9239 26.7844 24.8184 26.7409C24.713 26.6973 24.6 26.675 24.4859 26.6751C24.256 26.6755 24.0356 26.7672 23.8732 26.93C23.7109 27.0928 23.6198 27.3134 23.6201 27.5434V31.1977C23.6201 32.0389 22.809 32.8173 21.6263 32.8173H21.3204C20.1433 32.8173 19.3267 32.0389 19.3267 31.1977V17.2552C19.9767 16.4727 21.0036 15.995 22.0306 15.995C23.1558 15.995 24.2046 16.5443 24.8492 17.4685C24.9293 17.584 25.0363 17.6783 25.161 17.7432C25.2856 17.8082 25.4242 17.8418 25.5647 17.8413H25.6439C25.7845 17.8418 25.9231 17.8082 26.0477 17.7432C26.1724 17.6783 26.2794 17.584 26.3595 17.4685C27.0014 16.5443 28.0501 15.995 29.1699 15.995C30.2105 15.995 31.1856 16.4604 31.8356 17.2639C31.9619 17.421 32.1391 17.5292 32.3365 17.5698C32.534 17.6105 32.7394 17.581 32.9175 17.4866C33.0956 17.3922 33.2353 17.2387 33.3125 17.0524C33.3897 16.8662 33.3996 16.6589 33.3405 16.4662C31.4396 10.1863 25.816 5.80081 19.3267 5.43291V3.31568C19.3266 3.08595 19.2355 2.86562 19.0731 2.70306C18.9108 2.54049 18.6906 2.44898 18.4609 2.44861ZM18.5182 7.14082C18.5182 7.141 18.5182 7.14118 18.5182 7.14137C23.6775 7.1684 28.2796 10.0643 30.6366 14.4992C30.1586 14.3591 29.6752 14.2608 29.1699 14.2608C27.8262 14.2608 26.5534 14.807 25.6002 15.7269C24.6525 14.807 23.3825 14.2608 22.0306 14.2608C20.7223 14.2608 19.4578 14.7688 18.4964 15.6469C17.535 14.7688 16.2786 14.2608 14.9622 14.2608C13.6184 14.2608 12.3457 14.807 11.3925 15.7269C10.4448 14.807 9.17478 14.2608 7.82283 14.2608C7.32302 14.2608 6.8396 14.3583 6.36164 14.4984C8.71047 10.0722 13.3071 7.17906 18.4527 7.14191C18.4554 7.14211 18.4581 7.14229 18.4609 7.14246C18.4727 7.14234 18.4846 7.14197 18.4964 7.14137C18.5237 7.14137 18.5182 7.14109 18.5182 7.14082Z" fill="#18ADE8"/>
</svg>
